<svg xmlns="http://www.w3.org/2000/svg" viewBox="0 0 36 36" width="36" height="36"><rect x="1.0" y="1.0" width="34.0" height="34.0" rx="9" ry="9" fill="#FCFCFB" stroke="#CFD0D3" stroke-width="1.5"/><g transform="translate(8.0,8.0) scale(0.8333333333333334)" fill="none" stroke="#2C2F36" stroke-width="2" stroke-linecap="round" stroke-linejoin="round"><path d="M21 16V8a2 2 0 00-1-1.73l-7-4a2 2 0 00-2 0l-7 4A2 2 0 003 8v8a2 2 0 001 1.73l7 4a2 2 0 002 0l7-4A2 2 0 0021 16z"/><polyline points="3.27 6.96 12 12.01 20.73 6.96"/><line x1="12" y1="22.08" x2="12" y2="12"/></g></svg>