<svg xmlns="http://www.w3.org/2000/svg" viewBox="0 0 842 556" width="842" height="556" font-family="sans-serif"><rect width="842" height="556" fill="#FFFFFF"/><path d="M 38.00 40.00 H 803.60 A 14.00 14.00 0 0 1 817.60 54.00 V 502.40 A 14.00 14.00 0 0 1 803.60 516.40 H 38.00 A 14.00 14.00 0 0 1 24.00 502.40 V 54.00 A 14.00 14.00 0 0 1 38.00 40.00 Z" fill="#FCFCFB"/><path d="M 38.00 40.00 H 803.60 A 14.00 14.00 0 0 1 817.60 54.00 V 70.00 H 24.00 V 54.00 A 14.00 14.00 0 0 1 38.00 40.00 Z" fill="#E9E8E3"/><text x="40" y="60.0" font-size="14" font-weight="600" fill="#2C2F36" font-family="Georgia, serif">Beamer+</text><line x1="750.6" y1="55.0" x2="760.6" y2="55.0" stroke="#7E8189" stroke-width="1.5" stroke-linecap="round"/><rect x="772.6" y="50.0" width="10" height="10" rx="1.5" fill="none" stroke="#7E8189" stroke-width="1.5"/><line x1="794.6" y1="50.0" x2="804.6" y2="60.0" stroke="#7E8189" stroke-width="1.5" stroke-linecap="round"/><line x1="794.6" y1="60.0" x2="804.6" y2="50.0" stroke="#7E8189" stroke-width="1.5" stroke-linecap="round"/><line x1="24" y1="70" x2="817.6" y2="70" stroke="#CFD0D3" stroke-width="1"/><path d="M 24.00 70.00 H 817.60 V 502.40 A 14.00 14.00 0 0 1 803.60 516.40 H 38.00 A 14.00 14.00 0 0 1 24.00 502.40 V 70.00 Z" fill="#EDECE7"/><path d="M 24.00 70.00 H 105.84 V 516.40 H 38.00 A 14.00 14.00 0 0 1 24.00 502.40 V 70.00 Z" fill="#F3F2ED"/><line x1="105.84" y1="70.0" x2="105.84" y2="516.4" stroke="#CFD0D3" stroke-width="1"/><rect x="31.4" y="77.4" width="66.3" height="24.8" rx="8.0" ry="8.0" fill="#FCFCFB" stroke="#CFD0D3" stroke-width="1"/><g transform="translate(59.03,84.25999999999999) scale(0.465)" fill="none" stroke="#2C2F36" stroke-width="2" stroke-linecap="round" stroke-linejoin="round"><rect x="2" y="3" width="20" height="18" rx="2"/><line x1="12" y1="3" x2="12" y2="21"/></g><rect x="36.4" y="114.64" width="57.04" height="42.78" rx="4" fill="#FFFFFF" stroke="#CFD0D3" stroke-width="1"/><line x1="42.6" y1="125.8" x2="77.32" y2="125.8" stroke="#CFD0D3" stroke-width="2"/><line x1="42.6" y1="135.72" x2="86.0" y2="135.72" stroke="#AEB0B5" stroke-width="1.5"/><rect x="36.4" y="169.2" width="57.04" height="42.78" rx="4" fill="#FFFFFF" stroke="#4A4C50" stroke-width="2"/><line x1="42.6" y1="180.36" x2="77.32" y2="180.36" stroke="#CFD0D3" stroke-width="2"/><line x1="42.6" y1="190.28" x2="86.0" y2="190.28" stroke="#AEB0B5" stroke-width="1.5"/><rect x="36.4" y="223.76" width="57.04" height="42.78" rx="4" fill="#FFFFFF" stroke="#CFD0D3" stroke-width="1"/><line x1="42.6" y1="234.92" x2="77.32" y2="234.92" stroke="#CFD0D3" stroke-width="2"/><line x1="42.6" y1="244.84" x2="86.0" y2="244.84" stroke="#AEB0B5" stroke-width="1.5"/><rect x="36.4" y="278.32" width="57.04" height="42.78" rx="4" fill="#FFFFFF" stroke="#CFD0D3" stroke-width="1"/><line x1="42.6" y1="289.48" x2="77.32" y2="289.48" stroke="#CFD0D3" stroke-width="2"/><line x1="42.6" y1="299.4" x2="86.0" y2="299.4" stroke="#AEB0B5" stroke-width="1.5"/><rect x="36.4" y="332.88" width="57.04" height="42.78" rx="4" fill="#FFFFFF" stroke="#CFD0D3" stroke-width="1"/><line x1="42.6" y1="344.04" x2="77.32" y2="344.04" stroke="#CFD0D3" stroke-width="2"/><line x1="42.6" y1="353.96" x2="86.0" y2="353.96" stroke="#AEB0B5" stroke-width="1.5"/><rect x="31.4" y="424.6" width="66.3" height="24.8" rx="8.0" ry="8.0" fill="#FCFCFB" stroke="#CFD0D3" stroke-width="1"/><g transform="translate(59.03,431.46) scale(0.465)" fill="none" stroke="#2C2F36" stroke-width="2" stroke-linecap="round" stroke-linejoin="round"><path d="M14.5 2H6a2 2 0 0 0-2 2v16a2 2 0 0 0 2 2h12a2 2 0 0 0 2-2V7.5L14.5 2z"/><polyline points="14 2 14 8 20 8"/><line x1="12" y1="18" x2="12" y2="12"/><line x1="9" y1="15" x2="15" y2="15"/></g><rect x="31.4" y="454.4" width="66.3" height="24.8" rx="8.0" ry="8.0" fill="#FCFCFB" stroke="#CFD0D3" stroke-width="1"/><g transform="translate(59.03,461.21999999999997) scale(0.465)" fill="none" stroke="#2C2F36" stroke-width="2" stroke-linecap="round" stroke-linejoin="round"><line x1="18" y1="6" x2="6" y2="18"/><line x1="6" y1="6" x2="18" y2="18"/></g><rect x="31.4" y="484.2" width="66.3" height="24.8" rx="8.0" ry="8.0" fill="#FCFCFB" stroke="#CFD0D3" stroke-width="1"/><g transform="translate(59.03,490.98) scale(0.465)" fill="none" stroke="#2C2F36" stroke-width="2" stroke-linecap="round" stroke-linejoin="round"><path d="M19 21l-7-5-7 5V5a2 2 0 0 1 2-2h10a2 2 0 0 1 2 2z"/></g><rect x="229.1" y="151.5" width="388.7" height="291.4" rx="6" fill="#000000" fill-opacity="0.06"/><rect x="226.1" y="147.5" width="388.7" height="291.4" rx="6" fill="#FFFFFF" stroke="#CFD0D3" stroke-width="1"/><rect x="247.2" y="166.1" width="117.2" height="21.08" fill="#f1c40f" opacity="0.4"/><text x="248.44" y="183.46" font-size="18.6" font-weight="600" fill="#2C2F36" font-family="Georgia, serif">Sorting Algorithms</text><line x1="248.44" y1="195.86" x2="592.5" y2="195.86" stroke="#CFD0D3" stroke-width="1.5"/><circle cx="255.88" cy="212.6" r="2.5" fill="#55585F"/><line x1="265.8" y1="212.6" x2="451.8" y2="212.6" stroke="#7E8189" stroke-width="2.5" stroke-linecap="round"/><circle cx="255.88" cy="231.2" r="2.5" fill="#55585F"/><line x1="265.8" y1="231.2" x2="489.0" y2="231.2" stroke="#7E8189" stroke-width="2.5" stroke-linecap="round"/><circle cx="255.88" cy="249.8" r="2.5" fill="#55585F"/><line x1="265.8" y1="249.8" x2="420.8" y2="249.8" stroke="#7E8189" stroke-width="2.5" stroke-linecap="round"/><rect x="250.92000000000002" y="290.1" width="155.0" height="99.2" rx="6" fill="#E9E8E3" stroke="#CFD0D3" stroke-width="1"/><circle cx="328.42" cy="339.7" r="16.1" fill="#6B6D71" opacity="0.92"/><path d="M325.0 332.9 L335.2 339.7 L325.0 346.5 Z" fill="#FFFFFF"/><rect x="418.32" y="290.1" width="148.8" height="99.2" rx="6" fill="#E9E8E3" stroke="#CFD0D3" stroke-width="1"/><g transform="translate(478.46000000000004,325.44) scale(1.1883333333333335)" fill="none" stroke="#6B6D71" stroke-width="2" stroke-linecap="round" stroke-linejoin="round"><rect x="3" y="3" width="18" height="18" rx="2" ry="2"/><line x1="3" y1="9" x2="21" y2="9"/><line x1="9" y1="21" x2="9" y2="9"/></g><path d="M430.72 214.45999999999998 q 11.16 -11.16 22.32 0 t 22.32 0 t 22.32 0" fill="none" stroke="#e74c3c" stroke-width="1.9" stroke-linecap="round"/><rect x="774.2" y="132.6" width="36.0" height="315.7" rx="7.4" fill="#FBFBFA" stroke="#D6D7DA" stroke-width="1.5"/><rect x="779.8" y="138.2" width="24.8" height="24.8" rx="8.0" ry="8.0" fill="#6B6D71" stroke="#4A4C50" stroke-width="1"/><g transform="translate(786.6000000000001,145.02) scale(0.465)" fill="none" stroke="#FCFCFB" stroke-width="2" stroke-linecap="round" stroke-linejoin="round"><path d="M18 11V6a2 2 0 0 0-2-2 2 2 0 0 0-2 2"/><path d="M14 10V4a2 2 0 0 0-2-2 2 2 0 0 0-2 2v2"/><path d="M10 10.5V6a2 2 0 0 0-2-2 2 2 0 0 0-2 2v8"/><path d="M18 11a2 2 0 1 1 4 0v3a8 8 0 0 1-8 8h-2c-2.8 0-4.5-.86-5.99-2.34l-3.6-3.6a2 2 0 0 1 2.83-2.82L7 15"/></g><rect x="779.8" y="165.5" width="24.8" height="24.8" rx="8.0" ry="8.0" fill="transparent" stroke="transparent" stroke-width="1"/><g transform="translate(786.6000000000001,172.3) scale(0.465)" fill="none" stroke="#2C2F36" stroke-width="2" stroke-linecap="round" stroke-linejoin="round"><circle cx="12" cy="12" r="10"/><circle cx="12" cy="12" r="6"/><circle cx="12" cy="12" r="2"/></g><rect x="779.8" y="192.8" width="24.8" height="24.8" rx="8.0" ry="8.0" fill="transparent" stroke="transparent" stroke-width="1"/><g transform="translate(786.6000000000001,199.57999999999998) scale(0.465)" fill="none" stroke="#333333" stroke-width="2" stroke-linecap="round" stroke-linejoin="round"><path d="M17 3a2.828 2.828 0 1 1 4 4L7.5 20.5 2 22l1.5-5.5L17 3z"/></g><rect x="779.8" y="220.0" width="24.8" height="24.8" rx="8.0" ry="8.0" fill="transparent" stroke="transparent" stroke-width="1"/><g transform="translate(786.6000000000001,226.86) scale(0.465)" fill="none" stroke="#e74c3c" stroke-width="2" stroke-linecap="round" stroke-linejoin="round"><path d="M17 3a2.828 2.828 0 1 1 4 4L7.5 20.5 2 22l1.5-5.5L17 3z"/></g><rect x="779.8" y="247.3" width="24.8" height="24.8" rx="8.0" ry="8.0" fill="transparent" stroke="transparent" stroke-width="1"/><g transform="translate(786.6000000000001,254.14) scale(0.465)" fill="none" stroke="#f1c40f" stroke-width="2" stroke-linecap="round" stroke-linejoin="round"><path d="m9 11-6 6v3h3l6-6"/><path d="m22 12-4.6 4.6a2 2 0 0 1-2.8 0l-5.2-5.2a2 2 0 0 1 0-2.8L14 4"/></g><rect x="779.8" y="274.6" width="24.8" height="24.8" rx="8.0" ry="8.0" fill="transparent" stroke="transparent" stroke-width="1"/><g transform="translate(786.6000000000001,281.42) scale(0.465)" fill="none" stroke="#2ecc71" stroke-width="2" stroke-linecap="round" stroke-linejoin="round"><path d="m9 11-6 6v3h3l6-6"/><path d="m22 12-4.6 4.6a2 2 0 0 1-2.8 0l-5.2-5.2a2 2 0 0 1 0-2.8L14 4"/></g><rect x="779.8" y="301.9" width="24.8" height="24.8" rx="8.0" ry="8.0" fill="transparent" stroke="transparent" stroke-width="1"/><g transform="translate(786.6000000000001,308.7) scale(0.465)" fill="none" stroke="#3498db" stroke-width="2" stroke-linecap="round" stroke-linejoin="round"><path d="M17 3a2.828 2.828 0 1 1 4 4L7.5 20.5 2 22l1.5-5.5L17 3z"/></g><rect x="779.8" y="329.2" width="24.8" height="24.8" rx="8.0" ry="8.0" fill="transparent" stroke="transparent" stroke-width="1"/><g transform="translate(786.6000000000001,335.98) scale(0.465)" fill="none" stroke="#2C2F36" stroke-width="2" stroke-linecap="round" stroke-linejoin="round"><path d="M7 21h10"/><path d="m5 11 9-9 6 6-9 9H5z"/></g><line x1="779.7800000000001" y1="357.7" x2="804.58" y2="357.7" stroke="#D6D7DA" stroke-width="1"/><rect x="779.8" y="359.9" width="24.8" height="24.8" rx="8.0" ry="8.0" fill="transparent" stroke="transparent" stroke-width="1"/><g transform="translate(786.6000000000001,366.74) scale(0.465)" fill="none" stroke="#2C2F36" stroke-width="2" stroke-linecap="round" stroke-linejoin="round"><path d="M3 12a9 9 0 1 0 9-9 9.75 9.75 0 0 0-6.74 2.74L3 8"/><path d="M3 3v5h5"/></g><rect x="779.8" y="387.2" width="24.8" height="24.8" rx="8.0" ry="8.0" fill="transparent" stroke="transparent" stroke-width="1"/><g transform="translate(786.6000000000001,394.02000000000004) scale(0.465)" fill="none" stroke="#2C2F36" stroke-width="2" stroke-linecap="round" stroke-linejoin="round"><path d="M21 12a9 9 0 1 1-9-9c2.52 0 4.93 1 6.74 2.74L21 8"/><path d="M21 3v5h-5"/></g><line x1="779.7800000000001" y1="415.7" x2="804.58" y2="415.7" stroke="#D6D7DA" stroke-width="1"/><rect x="779.8" y="418.0" width="24.8" height="24.8" rx="8.0" ry="8.0" fill="transparent" stroke="transparent" stroke-width="1"/><g transform="translate(786.6000000000001,424.78000000000003) scale(0.465)" fill="none" stroke="#2C2F36" stroke-width="2" stroke-linecap="round" stroke-linejoin="round"><polyline points="3 6 5 6 21 6"/><path d="M19 6l-1 14H6L5 6"/><path d="M10 11v6"/><path d="M14 11v6"/><path d="M9 6V4h6v2"/></g><rect x="725.8" y="77.4" width="24.8" height="24.8" rx="8.0" ry="8.0" fill="#FCFCFB" stroke="#CFD0D3" stroke-width="1"/><g transform="translate(732.6600000000001,84.25999999999999) scale(0.465)" fill="none" stroke="#2C2F36" stroke-width="2" stroke-linecap="round" stroke-linejoin="round"><path d="M21 15v4a2 2 0 0 1-2 2H5a2 2 0 0 1-2-2v-4"/><polyline points="17 8 12 3 7 8"/><line x1="12" y1="3" x2="12" y2="15"/></g><rect x="753.1" y="77.4" width="24.8" height="24.8" rx="8.0" ry="8.0" fill="#FCFCFB" stroke="#CFD0D3" stroke-width="1"/><g transform="translate(759.94,84.25999999999999) scale(0.465)" fill="none" stroke="#2C2F36" stroke-width="2" stroke-linecap="round" stroke-linejoin="round"><path d="M21 15v4a2 2 0 0 1-2 2H5a2 2 0 0 1-2-2v-4"/><polyline points="7 10 12 15 17 10"/><line x1="12" y1="15" x2="12" y2="3"/></g><rect x="785.4" y="77.4" width="24.8" height="24.8" rx="8.0" ry="8.0" fill="#FCFCFB" stroke="#CFD0D3" stroke-width="1"/><g transform="translate(792.1800000000001,84.25999999999999) scale(0.465)" fill="none" stroke="#2C2F36" stroke-width="2" stroke-linecap="round" stroke-linejoin="round"><path d="M11 4H4a2 2 0 00-2 2v14a2 2 0 002 2h14a2 2 0 002-2v-7"/><path d="M18.5 2.5a2.121 2.121 0 013 3L12 15l-4 1 1-4 9.5-9.5z"/></g><rect x="725.8" y="484.2" width="24.8" height="24.8" rx="8.0" ry="8.0" fill="#FCFCFB" stroke="#CFD0D3" stroke-width="1"/><g transform="translate(732.6600000000001,490.98) scale(0.465)" fill="none" stroke="#2C2F36" stroke-width="2" stroke-linecap="round" stroke-linejoin="round"><circle cx="12" cy="12" r="10"/><polygon points="16.24 7.76 14.12 14.12 7.76 16.24 9.88 9.88 16.24 7.76"/></g><rect x="753.1" y="484.2" width="24.8" height="24.8" rx="8.0" ry="8.0" fill="#FCFCFB" stroke="#CFD0D3" stroke-width="1"/><g transform="translate(759.94,490.98) scale(0.465)" fill="none" stroke="#2C2F36" stroke-width="2" stroke-linecap="round" stroke-linejoin="round"><circle cx="12" cy="12" r="10"/><path d="M9.09 9a3 3 0 0 1 5.83 1c0 2-3 3-3 3"/><line x1="12" y1="17" x2="12.01" y2="17"/></g><rect x="780.4" y="484.2" width="24.8" height="24.8" rx="8.0" ry="8.0" fill="#FCFCFB" stroke="#CFD0D3" stroke-width="1"/><g transform="translate(787.22,490.98) scale(0.465)" fill="none" stroke="#2C2F36" stroke-width="2" stroke-linecap="round" stroke-linejoin="round"><circle cx="12" cy="12" r="3"/><path d="M19.4 15a1.65 1.65 0 0 0 .33 1.82l.06.06a2 2 0 0 1-2.83 2.83l-.06-.06a1.65 1.65 0 0 0-1.82-.33 1.65 1.65 0 0 0-1 1.51V21a2 2 0 0 1-4 0v-.09A1.65 1.65 0 0 0 9 19.4a1.65 1.65 0 0 0-1.82.33l-.06.06a2 2 0 0 1-2.83-2.83l.06-.06A1.65 1.65 0 0 0 4.68 15a1.65 1.65 0 0 0-1.51-1H3a2 2 0 0 1 0-4h.09A1.65 1.65 0 0 0 4.6 9a1.65 1.65 0 0 0-.33-1.82l-.06-.06a2 2 0 0 1 2.83-2.83l.06.06A1.65 1.65 0 0 0 9 4.68a1.65 1.65 0 0 0 1-1.51V3a2 2 0 0 1 4 0v.09a1.65 1.65 0 0 0 1 1.51 1.65 1.65 0 0 0 1.82-.33l.06-.06a2 2 0 0 1 2.83 2.83l-.06.06A1.65 1.65 0 0 0 19.4 9a1.65 1.65 0 0 0 1.51 1H21a2 2 0 0 1 0 4h-.09a1.65 1.65 0 0 0-1.51 1z"/></g><path d="M 38.00 40.00 H 803.60 A 14.00 14.00 0 0 1 817.60 54.00 V 502.40 A 14.00 14.00 0 0 1 803.60 516.40 H 38.00 A 14.00 14.00 0 0 1 24.00 502.40 V 54.00 A 14.00 14.00 0 0 1 38.00 40.00 Z" fill="none" stroke="#CFD0D3" stroke-width="1.5"/><circle cx="105.8" cy="274.6" r="12" fill="#3A3D42" stroke="#FFFFFF" stroke-width="2"/><text x="105.8" y="278.9" text-anchor="middle" font-family="sans-serif" font-size="12.0" font-weight="700" fill="#FFFFFF">1</text><circle cx="97.8" cy="89.8" r="12" fill="#3A3D42" stroke="#FFFFFF" stroke-width="2"/><text x="97.8" y="94.2" text-anchor="middle" font-family="sans-serif" font-size="12.0" font-weight="700" fill="#FFFFFF">2</text><circle cx="420.5" cy="147.5" r="12" fill="#3A3D42" stroke="#FFFFFF" stroke-width="2"/><text x="420.5" y="151.8" text-anchor="middle" font-family="sans-serif" font-size="12.0" font-weight="700" fill="#FFFFFF">3</text><circle cx="774.2" cy="150.6" r="12" fill="#3A3D42" stroke="#FFFFFF" stroke-width="2"/><text x="774.2" y="154.9" text-anchor="middle" font-family="sans-serif" font-size="12.0" font-weight="700" fill="#FFFFFF">4</text><circle cx="739.5" cy="109.7" r="12" fill="#3A3D42" stroke="#FFFFFF" stroke-width="2"/><text x="739.5" y="114.0" text-anchor="middle" font-family="sans-serif" font-size="12.0" font-weight="700" fill="#FFFFFF">5</text><circle cx="797.8" cy="109.7" r="12" fill="#3A3D42" stroke="#FFFFFF" stroke-width="2"/><text x="797.8" y="114.0" text-anchor="middle" font-family="sans-serif" font-size="12.0" font-weight="700" fill="#FFFFFF">6</text><circle cx="753.1" cy="479.2" r="12" fill="#3A3D42" stroke="#FFFFFF" stroke-width="2"/><text x="753.1" y="483.5" text-anchor="middle" font-family="sans-serif" font-size="12.0" font-weight="700" fill="#FFFFFF">7</text></svg>